<svg width="60" height="60" viewBox="0 0 60 60" fill="none" xmlns="http://www.w3.org/2000/svg">
<path d="M30 0C13.4315 0 0 13.4315 0 30C0 46.5685 13.4315 60 30 60C46.5685 60 60 46.5685 60 30C60 13.4315 46.5685 0 30 0Z" fill="white"/>
<path d="M30 0C13.4315 0 0 13.4315 0 30C0 46.5685 13.4315 60 30 60C46.5685 60 60 46.5685 60 30C60 13.4315 46.5685 0 30 0Z" fill="url(#paint0_linear)"/>
<path d="M13.7143 46.2857V13.7143H46.2857V46.2857H13.7143ZM17.1429 42.8571H42.8571V17.1429H17.1429V42.8571Z" fill="black"/>
<path d="M20.5714 39.4286V20.5714H39.4286V39.4286H20.5714ZM24 36H36V24H24V36Z" fill="black"/>
<defs>
<linearGradient id="paint0_linear" x1="30" y1="0" x2="30" y2="60" gradientUnits="userSpaceOnUse">
<stop stop-color="#FAFAFA"/>
<stop offset="1" stop-color="#F0F0F0"/>
</linearGradient>
</defs>
</svg>